<?xml version="1.0" encoding="UTF-8"?> <svg xmlns="http://www.w3.org/2000/svg" width="601" height="319" viewBox="0 0 601 319" fill="none"><rect y="76" width="601" height="96" rx="10" fill="white"></rect><path d="M324.864 149.228L206.717 203.913C203.158 205.56 201.82 209.205 203.467 212.763C214.339 236.25 241.929 246.381 265.417 235.51L347.457 197.105L355.693 214.898C351.508 219.86 347.652 225.534 345.167 232.301C335.036 259.892 349.202 290.497 376.793 300.628C404.904 310.95 434.988 296.593 445.119 269.002C455.441 240.891 441.605 210.998 413.494 200.676C411.411 199.911 409.329 199.147 406.726 198.191L395.664 175.224L419.151 164.353C421.754 165.309 423.645 166.594 425.727 167.359C453.839 177.681 483.923 163.324 494.054 135.733C504.376 107.622 490.54 77.7291 462.428 67.4069C434.837 57.2759 404.424 70.9209 394.102 99.0323C391.808 105.279 391.076 112.1 391.056 118.591L373.262 126.826L335.569 44.4567C324.698 20.9695 297.107 10.8385 273.62 21.7097C270.061 23.3569 268.723 27.001 270.37 30.5596L324.864 149.228ZM401.26 233.993C410.63 237.434 415.242 247.398 411.802 256.769C408.552 265.618 398.397 270.751 389.026 267.31C380.176 264.061 375.235 253.385 378.484 244.535C381.925 235.164 392.41 230.744 401.26 233.993ZM450.194 100.724C459.565 104.165 464.177 114.129 460.736 123.5C457.487 132.349 447.331 137.482 437.961 134.041C429.111 130.792 424.169 120.116 427.419 111.266C430.86 101.895 441.345 97.4746 450.194 100.724Z" fill="#222222"></path><path d="M552 106.562C542.367 106.562 534.562 114.367 534.562 124C534.562 133.633 542.367 141.438 552 141.438C561.633 141.438 569.438 133.633 569.438 124C569.438 114.367 561.633 106.562 552 106.562ZM549.961 116.688C549.258 116.055 549.258 114.93 549.891 114.297L550.664 113.523C551.367 112.82 552.422 112.82 553.055 113.523L562.406 122.875C563.039 123.508 563.039 124.562 562.406 125.195L553.055 134.547C552.422 135.18 551.367 135.18 550.664 134.547L549.891 133.773C549.258 133.141 549.258 132.016 549.961 131.383L555.234 126.25H542.438C541.453 126.25 540.75 125.547 540.75 124.562V123.438C540.75 122.523 541.453 121.75 542.438 121.75H555.234L549.961 116.688Z" fill="#222222"></path><path d="M47.4375 107.062C37.8047 107.062 30 114.867 30 124.5C30 134.133 37.8047 141.938 47.4375 141.938C57.0703 141.938 64.875 134.133 64.875 124.5C64.875 114.867 57.0703 107.062 47.4375 107.062ZM61.5 124.5C61.5 126.117 61.2188 127.664 60.7266 129.07H59.25C58.9688 129.07 58.6875 128.93 58.4766 128.719L56.2266 126.398C55.9453 126.117 55.9453 125.555 56.2266 125.273L57.1406 124.359V123.797C57.1406 123.586 57 123.375 56.8594 123.234L56.2266 122.531C56.0859 122.391 55.875 122.32 55.6641 122.32H54.5391C54.1172 122.32 53.7656 121.969 53.7656 121.547C53.7656 121.336 53.8359 121.125 53.9766 120.984L54.6094 120.281C54.75 120.141 54.9609 120.07 55.1719 120.07H57.4219C57.9141 120.07 58.2656 119.719 58.2656 119.297V118.594C58.2656 118.172 57.9141 117.82 57.4219 117.82H54.8906C54.2578 117.82 53.7656 118.312 53.7656 118.945V119.227C53.7656 119.719 53.4141 120.141 52.9922 120.352L50.7422 121.055C50.5312 121.125 50.3906 121.336 50.3906 121.617V121.758C50.3906 122.039 50.1094 122.32 49.8281 122.32H48.7031C48.3516 122.32 48.1406 122.039 48.1406 121.758C48.1406 121.406 47.8594 121.195 47.5781 121.195H47.3672C47.1562 121.195 46.9453 121.336 46.8047 121.477L46.1719 122.812C45.9609 123.164 45.6094 123.445 45.1875 123.445H43.6406C43.0078 123.445 42.5156 122.953 42.5156 122.32V120.492C42.5156 120.211 42.5859 119.93 42.7969 119.719L44.2031 118.312C44.5547 117.961 44.7656 117.539 44.7656 117.117C44.7656 116.836 44.9062 116.625 45.1172 116.555L47.9297 115.641C48.0703 115.57 48.1406 115.5 48.2109 115.43L50.1094 113.531C50.25 113.391 50.3906 113.18 50.3906 112.969C50.3906 112.547 49.9688 112.195 49.5469 112.195H48.1406L47.0156 113.32V113.883C47.0156 114.164 46.7344 114.445 46.4531 114.445H45.3281C44.9766 114.445 44.7656 114.164 44.7656 113.883V112.477C44.7656 112.266 44.8359 112.125 44.9766 111.984L47.0156 110.508C47.1562 110.508 47.2266 110.438 47.3672 110.438C55.1719 110.438 61.5 116.766 61.5 124.5ZM39.1406 117.047C39.1406 116.836 39.2109 116.625 39.3516 116.484L41.1094 114.656C41.25 114.516 41.4609 114.445 41.6719 114.445C42.1641 114.445 42.5156 114.797 42.5156 115.219V116.344C42.5156 116.555 42.375 116.766 42.2344 116.906L41.6016 117.609C41.4609 117.75 41.25 117.82 41.0391 117.82H39.9141C39.4922 117.82 39.1406 117.469 39.1406 117.047ZM48.1406 138.562V138.07C48.1406 137.438 47.5781 136.945 47.0156 136.945H45.5391C44.8359 136.945 43.7109 136.594 43.0781 136.102L41.5312 134.906C40.6875 134.344 40.2656 133.359 40.2656 132.375V130.688C40.2656 129.562 40.8281 128.508 41.8125 127.945L44.8359 126.117C45.3281 125.836 45.8906 125.695 46.4531 125.695H48.6328C49.4062 125.695 50.1797 125.977 50.7422 126.469L53.7656 129.07H55.0312C55.6641 129.07 56.2266 129.281 56.6484 129.703L57.8438 130.969C58.125 131.18 58.4062 131.32 58.7578 131.32H59.7422C57.4219 135.469 53.1328 138.281 48.1406 138.562Z" fill="#222222"></path><path d="M115.057 138H110.908V126.047C110.908 124.547 110.604 123.428 109.994 122.689C109.396 121.951 108.441 121.582 107.129 121.582C105.395 121.582 104.117 122.104 103.297 123.146C102.488 124.178 102.084 125.912 102.084 128.35V138H97.9531V110.648H102.084V117.592C102.084 118.705 102.014 119.895 101.873 121.16H102.137C102.699 120.223 103.479 119.496 104.475 118.98C105.482 118.465 106.654 118.207 107.99 118.207C112.701 118.207 115.057 120.58 115.057 125.326V138Z" fill="#222222"></path><path d="M128.047 135.012C129.055 135.012 130.062 134.854 131.07 134.537V137.648C130.613 137.848 130.021 138.012 129.295 138.141C128.58 138.281 127.836 138.352 127.062 138.352C123.148 138.352 121.191 136.289 121.191 132.164V121.688H118.537V119.859L121.385 118.348L122.791 114.234H125.34V118.559H130.877V121.688H125.34V132.094C125.34 133.09 125.586 133.828 126.078 134.309C126.582 134.777 127.238 135.012 128.047 135.012Z" fill="#222222"></path><path d="M142.215 135.012C143.223 135.012 144.23 134.854 145.238 134.537V137.648C144.781 137.848 144.189 138.012 143.463 138.141C142.748 138.281 142.004 138.352 141.23 138.352C137.316 138.352 135.359 136.289 135.359 132.164V121.688H132.705V119.859L135.553 118.348L136.959 114.234H139.508V118.559H145.045V121.688H139.508V132.094C139.508 133.09 139.754 133.828 140.246 134.309C140.75 134.777 141.406 135.012 142.215 135.012Z" fill="#222222"></path><path d="M159.002 138.352C156.541 138.352 154.631 137.467 153.271 135.697H153.025C153.189 137.338 153.271 138.334 153.271 138.686V146.648H149.141V118.559H152.48C152.574 118.922 152.768 119.789 153.061 121.16H153.271C154.561 119.191 156.494 118.207 159.072 118.207C161.498 118.207 163.385 119.086 164.732 120.844C166.092 122.602 166.771 125.068 166.771 128.244C166.771 131.42 166.08 133.898 164.697 135.68C163.326 137.461 161.428 138.352 159.002 138.352ZM158 121.582C156.359 121.582 155.158 122.062 154.396 123.023C153.646 123.984 153.271 125.52 153.271 127.629V128.244C153.271 130.611 153.646 132.328 154.396 133.395C155.146 134.449 156.371 134.977 158.07 134.977C159.5 134.977 160.602 134.391 161.375 133.219C162.148 132.047 162.535 130.377 162.535 128.209C162.535 126.029 162.148 124.383 161.375 123.27C160.613 122.145 159.488 121.582 158 121.582Z" fill="#222222"></path><path d="M170.955 135.803C170.955 134.947 171.178 134.291 171.623 133.834C172.068 133.377 172.713 133.148 173.557 133.148C174.412 133.148 175.062 133.389 175.508 133.869C175.953 134.338 176.176 134.982 176.176 135.803C176.176 136.635 175.947 137.297 175.49 137.789C175.045 138.27 174.4 138.51 173.557 138.51C172.713 138.51 172.068 138.27 171.623 137.789C171.178 137.309 170.955 136.646 170.955 135.803ZM170.955 120.791C170.955 119.021 171.822 118.137 173.557 118.137C174.436 118.137 175.092 118.371 175.525 118.84C175.959 119.309 176.176 119.959 176.176 120.791C176.176 121.623 175.947 122.285 175.49 122.777C175.045 123.258 174.4 123.498 173.557 123.498C172.713 123.498 172.068 123.258 171.623 122.777C171.178 122.297 170.955 121.635 170.955 120.791Z" fill="#222222"></path><path d="M192.277 112.301L182.715 138H178.812L188.393 112.301H192.277Z" fill="#222222"></path><path d="M206.34 112.301L196.777 138H192.875L202.455 112.301H206.34Z" fill="#222222"></path><path d="M225.553 138L223.039 128.93C222.734 127.969 222.184 125.736 221.387 122.232H221.229C220.549 125.396 220.01 127.641 219.611 128.965L217.027 138H212.457L207.008 118.559H211.227L213.705 128.139C214.268 130.506 214.666 132.533 214.9 134.221H215.006C215.123 133.365 215.299 132.387 215.533 131.285C215.779 130.172 215.99 129.34 216.166 128.789L219.119 118.559H223.654L226.52 128.789C226.695 129.363 226.912 130.242 227.17 131.426C227.439 132.609 227.598 133.529 227.645 134.186H227.785C227.961 132.744 228.371 130.729 229.016 128.139L231.529 118.559H235.678L230.193 138H225.553Z" fill="#222222"></path><path d="M254.979 138L252.465 128.93C252.16 127.969 251.609 125.736 250.812 122.232H250.654C249.975 125.396 249.436 127.641 249.037 128.965L246.453 138H241.883L236.434 118.559H240.652L243.131 128.139C243.693 130.506 244.092 132.533 244.326 134.221H244.432C244.549 133.365 244.725 132.387 244.959 131.285C245.205 130.172 245.416 129.34 245.592 128.789L248.545 118.559H253.08L255.945 128.789C256.121 129.363 256.338 130.242 256.596 131.426C256.865 132.609 257.023 133.529 257.07 134.186H257.211C257.387 132.744 257.797 130.729 258.441 128.139L260.955 118.559H265.104L259.619 138H254.979Z" fill="#222222"></path><path d="M284.404 138L281.891 128.93C281.586 127.969 281.035 125.736 280.238 122.232H280.08C279.4 125.396 278.861 127.641 278.463 128.965L275.879 138H271.309L265.859 118.559H270.078L272.557 128.139C273.119 130.506 273.518 132.533 273.752 134.221H273.857C273.975 133.365 274.15 132.387 274.385 131.285C274.631 130.172 274.842 129.34 275.018 128.789L277.971 118.559H282.506L285.371 128.789C285.547 129.363 285.764 130.242 286.021 131.426C286.291 132.609 286.449 133.529 286.496 134.186H286.637C286.812 132.744 287.223 130.729 287.867 128.139L290.381 118.559H294.529L289.045 138H284.404Z" fill="#222222"></path></svg> 